<svg xmlns="http://www.w3.org/2000/svg" viewBox="0 0 24 24" width="24" height="24">
  <path fill="#FFA500" stroke="#FF8C00" stroke-width="1" stroke-linejoin="round" d="M12 17.27L18.18 21 15.9 13.81 21 9.24 13.81 8.63 12 2 10.19 8.63 3 9.24 8.09 13.81 5.82 21z"/>
</svg>

<svg xmlns="http://www.w3.org/2000/svg" viewBox="0 0 24 24" width="24" height="24">
  <defs>
    <linearGradient id="halfGrad">
      <stop offset="50%" stop-color="#FFA500"/>
      <stop offset="50%" stop-color="white"/>
    </linearGradient>
  </defs>
  <path fill="url(#halfGrad)" stroke="#FF8C00" stroke-width="1" stroke-linejoin="round" d="M12 17.27L18.18 21 15.9 13.81 21 9.24 13.81 8.63 12 2 10.19 8.63 3 9.24 8.09 13.81 5.82 21z"/>
</svg>

<svg xmlns="http://www.w3.org/2000/svg" viewBox="0 0 24 24" width="24" height="24">
  <path fill="white" stroke="#FF8C00" stroke-width="1" stroke-linejoin="round" d="M12 17.27L18.18 21 15.9 13.81 21 9.24 13.81 8.63 12 2 10.19 8.63 3 9.24 8.09 13.81 5.82 21z"/>
</svg>


